<?xml version="1.0" encoding="utf-8" standalone="no"?>
<!DOCTYPE svg PUBLIC "-//W3C//DTD SVG 1.1//EN"
  "http://www.w3.org/Graphics/SVG/1.1/DTD/svg11.dtd">
<svg xmlns:xlink="http://www.w3.org/1999/xlink" width="409.342372pt" height="253.834795pt" viewBox="0 0 409.342372 253.834795" xmlns="http://www.w3.org/2000/svg" version="1.1">
 <metadata>
  <rdf:RDF xmlns:dc="http://purl.org/dc/elements/1.1/" xmlns:cc="http://creativecommons.org/ns#" xmlns:rdf="http://www.w3.org/1999/02/22-rdf-syntax-ns#">
   <cc:Work>
    <dc:type rdf:resource="http://purl.org/dc/dcmitype/StillImage"/>
    <dc:date>2026-04-23T23:48:24.714127</dc:date>
    <dc:format>image/svg+xml</dc:format>
    <dc:creator>
     <cc:Agent>
      <dc:title>Matplotlib v3.10.8, https://matplotlib.org/</dc:title>
     </cc:Agent>
    </dc:creator>
   </cc:Work>
  </rdf:RDF>
 </metadata>
 <defs>
  <style type="text/css">*{stroke-linejoin: round; stroke-linecap: butt}</style>
 </defs>
 <g id="figure_1">
  <g id="patch_1">
   <path d="M 0 253.834795 
L 409.342372 253.834795 
L 409.342372 0 
L 0 0 
z
" style="fill: #ffffff"/>
  </g>
  <g id="axes_1">
   <g id="patch_2">
    <path d="M 40.911094 228.988858 
L 398.031094 228.988858 
L 398.031094 22.370625 
L 40.911094 22.370625 
z
" style="fill: #ffffff"/>
   </g>
   <g id="matplotlib.axis_1">
    <g id="xtick_1">
     <g id="line2d_1">
      <path d="M 45.477047 228.988858 
L 45.477047 22.370625 
" clip-path="url(#p2b7b330801)" style="fill: none; stroke: #b0b0b0; stroke-opacity: 0.25; stroke-width: 0.8; stroke-linecap: square"/>
     </g>
     <g id="line2d_2">
      <defs>
       <path id="me4fd71d5b0" d="M 0 0 
L 0 3.5 
" style="stroke: #000000; stroke-width: 0.8"/>
      </defs>
      <g>
       <use xlink:href="#me4fd71d5b0" x="45.477047" y="228.988858" style="stroke: #000000; stroke-width: 0.8"/>
      </g>
     </g>
     <g id="text_1">
      <!-- −1.5 -->
      <g transform="translate(32.1215 244.347139) scale(0.11 -0.11)">
       <defs>
        <path id="DejaVuSans-2212" d="M 678 2272 
L 4684 2272 
L 4684 1741 
L 678 1741 
L 678 2272 
z
" transform="scale(0.015625)"/>
        <path id="DejaVuSans-31" d="M 794 531 
L 1825 531 
L 1825 4091 
L 703 3866 
L 703 4441 
L 1819 4666 
L 2450 4666 
L 2450 531 
L 3481 531 
L 3481 0 
L 794 0 
L 794 531 
z
" transform="scale(0.015625)"/>
        <path id="DejaVuSans-2e" d="M 684 794 
L 1344 794 
L 1344 0 
L 684 0 
L 684 794 
z
" transform="scale(0.015625)"/>
        <path id="DejaVuSans-35" d="M 691 4666 
L 3169 4666 
L 3169 4134 
L 1269 4134 
L 1269 2991 
Q 1406 3038 1543 3061 
Q 1681 3084 1819 3084 
Q 2600 3084 3056 2656 
Q 3513 2228 3513 1497 
Q 3513 744 3044 326 
Q 2575 -91 1722 -91 
Q 1428 -91 1123 -41 
Q 819 9 494 109 
L 494 744 
Q 775 591 1075 516 
Q 1375 441 1709 441 
Q 2250 441 2565 725 
Q 2881 1009 2881 1497 
Q 2881 1984 2565 2268 
Q 2250 2553 1709 2553 
Q 1456 2553 1204 2497 
Q 953 2441 691 2322 
L 691 4666 
z
" transform="scale(0.015625)"/>
       </defs>
       <use xlink:href="#DejaVuSans-2212"/>
       <use xlink:href="#DejaVuSans-31" transform="translate(83.789062 0)"/>
       <use xlink:href="#DejaVuSans-2e" transform="translate(147.412109 0)"/>
       <use xlink:href="#DejaVuSans-35" transform="translate(179.199219 0)"/>
      </g>
     </g>
    </g>
    <g id="xtick_2">
     <g id="line2d_3">
      <path d="M 103.463482 228.988858 
L 103.463482 22.370625 
" clip-path="url(#p2b7b330801)" style="fill: none; stroke: #b0b0b0; stroke-opacity: 0.25; stroke-width: 0.8; stroke-linecap: square"/>
     </g>
     <g id="line2d_4">
      <g>
       <use xlink:href="#me4fd71d5b0" x="103.463482" y="228.988858" style="stroke: #000000; stroke-width: 0.8"/>
      </g>
     </g>
     <g id="text_2">
      <!-- −1.0 -->
      <g transform="translate(90.107935 244.347139) scale(0.11 -0.11)">
       <defs>
        <path id="DejaVuSans-30" d="M 2034 4250 
Q 1547 4250 1301 3770 
Q 1056 3291 1056 2328 
Q 1056 1369 1301 889 
Q 1547 409 2034 409 
Q 2525 409 2770 889 
Q 3016 1369 3016 2328 
Q 3016 3291 2770 3770 
Q 2525 4250 2034 4250 
z
M 2034 4750 
Q 2819 4750 3233 4129 
Q 3647 3509 3647 2328 
Q 3647 1150 3233 529 
Q 2819 -91 2034 -91 
Q 1250 -91 836 529 
Q 422 1150 422 2328 
Q 422 3509 836 4129 
Q 1250 4750 2034 4750 
z
" transform="scale(0.015625)"/>
       </defs>
       <use xlink:href="#DejaVuSans-2212"/>
       <use xlink:href="#DejaVuSans-31" transform="translate(83.789062 0)"/>
       <use xlink:href="#DejaVuSans-2e" transform="translate(147.412109 0)"/>
       <use xlink:href="#DejaVuSans-30" transform="translate(179.199219 0)"/>
      </g>
     </g>
    </g>
    <g id="xtick_3">
     <g id="line2d_5">
      <path d="M 161.449916 228.988858 
L 161.449916 22.370625 
" clip-path="url(#p2b7b330801)" style="fill: none; stroke: #b0b0b0; stroke-opacity: 0.25; stroke-width: 0.8; stroke-linecap: square"/>
     </g>
     <g id="line2d_6">
      <g>
       <use xlink:href="#me4fd71d5b0" x="161.449916" y="228.988858" style="stroke: #000000; stroke-width: 0.8"/>
      </g>
     </g>
     <g id="text_3">
      <!-- −0.5 -->
      <g transform="translate(148.094369 244.347139) scale(0.11 -0.11)">
       <use xlink:href="#DejaVuSans-2212"/>
       <use xlink:href="#DejaVuSans-30" transform="translate(83.789062 0)"/>
       <use xlink:href="#DejaVuSans-2e" transform="translate(147.412109 0)"/>
       <use xlink:href="#DejaVuSans-35" transform="translate(179.199219 0)"/>
      </g>
     </g>
    </g>
    <g id="xtick_4">
     <g id="line2d_7">
      <path d="M 219.43635 228.988858 
L 219.43635 22.370625 
" clip-path="url(#p2b7b330801)" style="fill: none; stroke: #b0b0b0; stroke-opacity: 0.25; stroke-width: 0.8; stroke-linecap: square"/>
     </g>
     <g id="line2d_8">
      <g>
       <use xlink:href="#me4fd71d5b0" x="219.43635" y="228.988858" style="stroke: #000000; stroke-width: 0.8"/>
      </g>
     </g>
     <g id="text_4">
      <!-- 0.0 -->
      <g transform="translate(210.689632 244.347139) scale(0.11 -0.11)">
       <use xlink:href="#DejaVuSans-30"/>
       <use xlink:href="#DejaVuSans-2e" transform="translate(63.623047 0)"/>
       <use xlink:href="#DejaVuSans-30" transform="translate(95.410156 0)"/>
      </g>
     </g>
    </g>
    <g id="xtick_5">
     <g id="line2d_9">
      <path d="M 277.422785 228.988858 
L 277.422785 22.370625 
" clip-path="url(#p2b7b330801)" style="fill: none; stroke: #b0b0b0; stroke-opacity: 0.25; stroke-width: 0.8; stroke-linecap: square"/>
     </g>
     <g id="line2d_10">
      <g>
       <use xlink:href="#me4fd71d5b0" x="277.422785" y="228.988858" style="stroke: #000000; stroke-width: 0.8"/>
      </g>
     </g>
     <g id="text_5">
      <!-- 0.5 -->
      <g transform="translate(268.676066 244.347139) scale(0.11 -0.11)">
       <use xlink:href="#DejaVuSans-30"/>
       <use xlink:href="#DejaVuSans-2e" transform="translate(63.623047 0)"/>
       <use xlink:href="#DejaVuSans-35" transform="translate(95.410156 0)"/>
      </g>
     </g>
    </g>
    <g id="xtick_6">
     <g id="line2d_11">
      <path d="M 335.409219 228.988858 
L 335.409219 22.370625 
" clip-path="url(#p2b7b330801)" style="fill: none; stroke: #b0b0b0; stroke-opacity: 0.25; stroke-width: 0.8; stroke-linecap: square"/>
     </g>
     <g id="line2d_12">
      <g>
       <use xlink:href="#me4fd71d5b0" x="335.409219" y="228.988858" style="stroke: #000000; stroke-width: 0.8"/>
      </g>
     </g>
     <g id="text_6">
      <!-- 1.0 -->
      <g transform="translate(326.6625 244.347139) scale(0.11 -0.11)">
       <use xlink:href="#DejaVuSans-31"/>
       <use xlink:href="#DejaVuSans-2e" transform="translate(63.623047 0)"/>
       <use xlink:href="#DejaVuSans-30" transform="translate(95.410156 0)"/>
      </g>
     </g>
    </g>
    <g id="xtick_7">
     <g id="line2d_13">
      <path d="M 393.395653 228.988858 
L 393.395653 22.370625 
" clip-path="url(#p2b7b330801)" style="fill: none; stroke: #b0b0b0; stroke-opacity: 0.25; stroke-width: 0.8; stroke-linecap: square"/>
     </g>
     <g id="line2d_14">
      <g>
       <use xlink:href="#me4fd71d5b0" x="393.395653" y="228.988858" style="stroke: #000000; stroke-width: 0.8"/>
      </g>
     </g>
     <g id="text_7">
      <!-- 1.5 -->
      <g transform="translate(384.648935 244.347139) scale(0.11 -0.11)">
       <use xlink:href="#DejaVuSans-31"/>
       <use xlink:href="#DejaVuSans-2e" transform="translate(63.623047 0)"/>
       <use xlink:href="#DejaVuSans-35" transform="translate(95.410156 0)"/>
      </g>
     </g>
    </g>
   </g>
   <g id="matplotlib.axis_2">
    <g id="ytick_1">
     <g id="line2d_15">
      <path d="M 40.911094 219.635508 
L 398.031094 219.635508 
" clip-path="url(#p2b7b330801)" style="fill: none; stroke: #b0b0b0; stroke-opacity: 0.25; stroke-width: 0.8; stroke-linecap: square"/>
     </g>
     <g id="line2d_16">
      <defs>
       <path id="m689840cb25" d="M 0 0 
L -3.5 0 
" style="stroke: #000000; stroke-width: 0.8"/>
      </defs>
      <g>
       <use xlink:href="#m689840cb25" x="40.911094" y="219.635508" style="stroke: #000000; stroke-width: 0.8"/>
      </g>
     </g>
     <g id="text_8">
      <!-- −0.8 -->
      <g transform="translate(7.2 223.814649) scale(0.11 -0.11)">
       <defs>
        <path id="DejaVuSans-38" d="M 2034 2216 
Q 1584 2216 1326 1975 
Q 1069 1734 1069 1313 
Q 1069 891 1326 650 
Q 1584 409 2034 409 
Q 2484 409 2743 651 
Q 3003 894 3003 1313 
Q 3003 1734 2745 1975 
Q 2488 2216 2034 2216 
z
M 1403 2484 
Q 997 2584 770 2862 
Q 544 3141 544 3541 
Q 544 4100 942 4425 
Q 1341 4750 2034 4750 
Q 2731 4750 3128 4425 
Q 3525 4100 3525 3541 
Q 3525 3141 3298 2862 
Q 3072 2584 2669 2484 
Q 3125 2378 3379 2068 
Q 3634 1759 3634 1313 
Q 3634 634 3220 271 
Q 2806 -91 2034 -91 
Q 1263 -91 848 271 
Q 434 634 434 1313 
Q 434 1759 690 2068 
Q 947 2378 1403 2484 
z
M 1172 3481 
Q 1172 3119 1398 2916 
Q 1625 2713 2034 2713 
Q 2441 2713 2670 2916 
Q 2900 3119 2900 3481 
Q 2900 3844 2670 4047 
Q 2441 4250 2034 4250 
Q 1625 4250 1398 4047 
Q 1172 3844 1172 3481 
z
" transform="scale(0.015625)"/>
       </defs>
       <use xlink:href="#DejaVuSans-2212"/>
       <use xlink:href="#DejaVuSans-30" transform="translate(83.789062 0)"/>
       <use xlink:href="#DejaVuSans-2e" transform="translate(147.412109 0)"/>
       <use xlink:href="#DejaVuSans-38" transform="translate(179.199219 0)"/>
      </g>
     </g>
    </g>
    <g id="ytick_2">
     <g id="line2d_17">
      <path d="M 40.911094 196.440935 
L 398.031094 196.440935 
" clip-path="url(#p2b7b330801)" style="fill: none; stroke: #b0b0b0; stroke-opacity: 0.25; stroke-width: 0.8; stroke-linecap: square"/>
     </g>
     <g id="line2d_18">
      <g>
       <use xlink:href="#m689840cb25" x="40.911094" y="196.440935" style="stroke: #000000; stroke-width: 0.8"/>
      </g>
     </g>
     <g id="text_9">
      <!-- −0.6 -->
      <g transform="translate(7.2 200.620075) scale(0.11 -0.11)">
       <defs>
        <path id="DejaVuSans-36" d="M 2113 2584 
Q 1688 2584 1439 2293 
Q 1191 2003 1191 1497 
Q 1191 994 1439 701 
Q 1688 409 2113 409 
Q 2538 409 2786 701 
Q 3034 994 3034 1497 
Q 3034 2003 2786 2293 
Q 2538 2584 2113 2584 
z
M 3366 4563 
L 3366 3988 
Q 3128 4100 2886 4159 
Q 2644 4219 2406 4219 
Q 1781 4219 1451 3797 
Q 1122 3375 1075 2522 
Q 1259 2794 1537 2939 
Q 1816 3084 2150 3084 
Q 2853 3084 3261 2657 
Q 3669 2231 3669 1497 
Q 3669 778 3244 343 
Q 2819 -91 2113 -91 
Q 1303 -91 875 529 
Q 447 1150 447 2328 
Q 447 3434 972 4092 
Q 1497 4750 2381 4750 
Q 2619 4750 2861 4703 
Q 3103 4656 3366 4563 
z
" transform="scale(0.015625)"/>
       </defs>
       <use xlink:href="#DejaVuSans-2212"/>
       <use xlink:href="#DejaVuSans-30" transform="translate(83.789062 0)"/>
       <use xlink:href="#DejaVuSans-2e" transform="translate(147.412109 0)"/>
       <use xlink:href="#DejaVuSans-36" transform="translate(179.199219 0)"/>
      </g>
     </g>
    </g>
    <g id="ytick_3">
     <g id="line2d_19">
      <path d="M 40.911094 173.246361 
L 398.031094 173.246361 
" clip-path="url(#p2b7b330801)" style="fill: none; stroke: #b0b0b0; stroke-opacity: 0.25; stroke-width: 0.8; stroke-linecap: square"/>
     </g>
     <g id="line2d_20">
      <g>
       <use xlink:href="#m689840cb25" x="40.911094" y="173.246361" style="stroke: #000000; stroke-width: 0.8"/>
      </g>
     </g>
     <g id="text_10">
      <!-- −0.4 -->
      <g transform="translate(7.2 177.425502) scale(0.11 -0.11)">
       <defs>
        <path id="DejaVuSans-34" d="M 2419 4116 
L 825 1625 
L 2419 1625 
L 2419 4116 
z
M 2253 4666 
L 3047 4666 
L 3047 1625 
L 3713 1625 
L 3713 1100 
L 3047 1100 
L 3047 0 
L 2419 0 
L 2419 1100 
L 313 1100 
L 313 1709 
L 2253 4666 
z
" transform="scale(0.015625)"/>
       </defs>
       <use xlink:href="#DejaVuSans-2212"/>
       <use xlink:href="#DejaVuSans-30" transform="translate(83.789062 0)"/>
       <use xlink:href="#DejaVuSans-2e" transform="translate(147.412109 0)"/>
       <use xlink:href="#DejaVuSans-34" transform="translate(179.199219 0)"/>
      </g>
     </g>
    </g>
    <g id="ytick_4">
     <g id="line2d_21">
      <path d="M 40.911094 150.051787 
L 398.031094 150.051787 
" clip-path="url(#p2b7b330801)" style="fill: none; stroke: #b0b0b0; stroke-opacity: 0.25; stroke-width: 0.8; stroke-linecap: square"/>
     </g>
     <g id="line2d_22">
      <g>
       <use xlink:href="#m689840cb25" x="40.911094" y="150.051787" style="stroke: #000000; stroke-width: 0.8"/>
      </g>
     </g>
     <g id="text_11">
      <!-- −0.2 -->
      <g transform="translate(7.2 154.230928) scale(0.11 -0.11)">
       <defs>
        <path id="DejaVuSans-32" d="M 1228 531 
L 3431 531 
L 3431 0 
L 469 0 
L 469 531 
Q 828 903 1448 1529 
Q 2069 2156 2228 2338 
Q 2531 2678 2651 2914 
Q 2772 3150 2772 3378 
Q 2772 3750 2511 3984 
Q 2250 4219 1831 4219 
Q 1534 4219 1204 4116 
Q 875 4013 500 3803 
L 500 4441 
Q 881 4594 1212 4672 
Q 1544 4750 1819 4750 
Q 2544 4750 2975 4387 
Q 3406 4025 3406 3419 
Q 3406 3131 3298 2873 
Q 3191 2616 2906 2266 
Q 2828 2175 2409 1742 
Q 1991 1309 1228 531 
z
" transform="scale(0.015625)"/>
       </defs>
       <use xlink:href="#DejaVuSans-2212"/>
       <use xlink:href="#DejaVuSans-30" transform="translate(83.789062 0)"/>
       <use xlink:href="#DejaVuSans-2e" transform="translate(147.412109 0)"/>
       <use xlink:href="#DejaVuSans-32" transform="translate(179.199219 0)"/>
      </g>
     </g>
    </g>
    <g id="ytick_5">
     <g id="line2d_23">
      <path d="M 40.911094 126.857213 
L 398.031094 126.857213 
" clip-path="url(#p2b7b330801)" style="fill: none; stroke: #b0b0b0; stroke-opacity: 0.25; stroke-width: 0.8; stroke-linecap: square"/>
     </g>
     <g id="line2d_24">
      <g>
       <use xlink:href="#m689840cb25" x="40.911094" y="126.857213" style="stroke: #000000; stroke-width: 0.8"/>
      </g>
     </g>
     <g id="text_12">
      <!-- 0.0 -->
      <g transform="translate(16.417656 131.036354) scale(0.11 -0.11)">
       <use xlink:href="#DejaVuSans-30"/>
       <use xlink:href="#DejaVuSans-2e" transform="translate(63.623047 0)"/>
       <use xlink:href="#DejaVuSans-30" transform="translate(95.410156 0)"/>
      </g>
     </g>
    </g>
    <g id="ytick_6">
     <g id="line2d_25">
      <path d="M 40.911094 103.66264 
L 398.031094 103.66264 
" clip-path="url(#p2b7b330801)" style="fill: none; stroke: #b0b0b0; stroke-opacity: 0.25; stroke-width: 0.8; stroke-linecap: square"/>
     </g>
     <g id="line2d_26">
      <g>
       <use xlink:href="#m689840cb25" x="40.911094" y="103.66264" style="stroke: #000000; stroke-width: 0.8"/>
      </g>
     </g>
     <g id="text_13">
      <!-- 0.2 -->
      <g transform="translate(16.417656 107.84178) scale(0.11 -0.11)">
       <use xlink:href="#DejaVuSans-30"/>
       <use xlink:href="#DejaVuSans-2e" transform="translate(63.623047 0)"/>
       <use xlink:href="#DejaVuSans-32" transform="translate(95.410156 0)"/>
      </g>
     </g>
    </g>
    <g id="ytick_7">
     <g id="line2d_27">
      <path d="M 40.911094 80.468066 
L 398.031094 80.468066 
" clip-path="url(#p2b7b330801)" style="fill: none; stroke: #b0b0b0; stroke-opacity: 0.25; stroke-width: 0.8; stroke-linecap: square"/>
     </g>
     <g id="line2d_28">
      <g>
       <use xlink:href="#m689840cb25" x="40.911094" y="80.468066" style="stroke: #000000; stroke-width: 0.8"/>
      </g>
     </g>
     <g id="text_14">
      <!-- 0.4 -->
      <g transform="translate(16.417656 84.647207) scale(0.11 -0.11)">
       <use xlink:href="#DejaVuSans-30"/>
       <use xlink:href="#DejaVuSans-2e" transform="translate(63.623047 0)"/>
       <use xlink:href="#DejaVuSans-34" transform="translate(95.410156 0)"/>
      </g>
     </g>
    </g>
    <g id="ytick_8">
     <g id="line2d_29">
      <path d="M 40.911094 57.273492 
L 398.031094 57.273492 
" clip-path="url(#p2b7b330801)" style="fill: none; stroke: #b0b0b0; stroke-opacity: 0.25; stroke-width: 0.8; stroke-linecap: square"/>
     </g>
     <g id="line2d_30">
      <g>
       <use xlink:href="#m689840cb25" x="40.911094" y="57.273492" style="stroke: #000000; stroke-width: 0.8"/>
      </g>
     </g>
     <g id="text_15">
      <!-- 0.6 -->
      <g transform="translate(16.417656 61.452633) scale(0.11 -0.11)">
       <use xlink:href="#DejaVuSans-30"/>
       <use xlink:href="#DejaVuSans-2e" transform="translate(63.623047 0)"/>
       <use xlink:href="#DejaVuSans-36" transform="translate(95.410156 0)"/>
      </g>
     </g>
    </g>
    <g id="ytick_9">
     <g id="line2d_31">
      <path d="M 40.911094 34.078918 
L 398.031094 34.078918 
" clip-path="url(#p2b7b330801)" style="fill: none; stroke: #b0b0b0; stroke-opacity: 0.25; stroke-width: 0.8; stroke-linecap: square"/>
     </g>
     <g id="line2d_32">
      <g>
       <use xlink:href="#m689840cb25" x="40.911094" y="34.078918" style="stroke: #000000; stroke-width: 0.8"/>
      </g>
     </g>
     <g id="text_16">
      <!-- 0.8 -->
      <g transform="translate(16.417656 38.258059) scale(0.11 -0.11)">
       <use xlink:href="#DejaVuSans-30"/>
       <use xlink:href="#DejaVuSans-2e" transform="translate(63.623047 0)"/>
       <use xlink:href="#DejaVuSans-38" transform="translate(95.410156 0)"/>
      </g>
     </g>
    </g>
   </g>
   <g id="line2d_33">
    <path d="M 378.850746 113.681015 
L 378.558912 110.200807 
L 378.077588 106.878413 
L 377.418539 103.718285 
L 376.593208 100.72209 
L 375.612353 97.888795 
L 374.485728 95.214811 
L 373.221818 92.694188 
L 371.827617 90.318847 
L 370.308477 88.078853 
L 368.094609 85.282703 
L 365.668591 82.676157 
L 363.028838 80.226345 
L 360.169009 77.899452 
L 357.078879 75.662167 
L 352.872442 72.943946 
L 348.257745 70.262511 
L 343.207767 67.574166 
L 336.543675 64.296667 
L 329.204738 60.939579 
L 321.202229 57.506898 
L 312.582004 54.030561 
L 303.426325 50.565919 
L 293.851504 47.18537 
L 284.001472 43.970869 
L 275.699213 41.479448 
L 267.414801 39.207234 
L 259.241986 37.19455 
L 251.265788 35.474285 
L 243.557208 34.070478 
L 236.168699 32.997599 
L 230.509624 32.381163 
L 225.079943 31.978175 
L 219.874144 31.78371 
L 214.876846 31.790082 
L 210.063453 31.987462 
L 205.401219 32.364545 
L 199.725384 33.07017 
L 194.136317 34.014029 
L 188.540746 35.174104 
L 181.687779 36.825415 
L 173.3226 39.079948 
L 161.729134 42.46941 
L 149.064975 46.413521 
L 137.010089 50.411775 
L 127.643459 53.733223 
L 118.186795 57.341332 
L 110.38558 60.568384 
L 104.288783 63.291533 
L 98.392095 66.135669 
L 92.759734 69.09406 
L 87.451413 72.157909 
L 82.520209 75.316599 
L 79.096485 77.740634 
L 75.925383 80.205761 
L 73.018677 82.706307 
L 70.384543 85.236551 
L 68.02746 87.79087 
L 65.948212 90.363882 
L 64.143981 92.950595 
L 62.608516 95.546544 
L 61.332407 98.147915 
L 60.303418 100.751655 
L 59.5069 103.355566 
L 58.926262 105.958367 
L 58.543494 108.559739 
L 58.339712 111.160333 
L 58.31332 114.629493 
L 58.526696 118.106519 
L 59.068533 122.477458 
L 59.853842 126.89596 
L 61.051728 132.295084 
L 62.495743 137.839586 
L 64.205065 143.565462 
L 65.885045 148.492808 
L 67.871779 153.566046 
L 69.742713 157.724908 
L 71.921392 161.962703 
L 73.791438 165.183926 
L 75.890802 168.432703 
L 78.243348 171.698929 
L 80.871819 174.970899 
L 83.797169 178.23544 
L 87.037922 181.478079 
L 90.609568 184.683249 
L 94.524009 187.834528 
L 98.789075 190.914907 
L 103.408125 193.907088 
L 108.379726 196.793786 
L 113.697445 199.558056 
L 119.349734 202.183617 
L 125.319932 204.655171 
L 131.586377 206.958722 
L 138.122624 209.081857 
L 144.897772 211.014027 
L 151.876893 212.746774 
L 159.021551 214.273932 
L 166.290402 215.591783 
L 173.639868 216.699166 
L 181.024859 217.59753 
L 188.399542 218.290941 
L 195.71813 218.786028 
L 202.93568 219.091879 
L 212.327379 219.225303 
L 221.367007 219.075455 
L 229.969351 218.680477 
L 238.062322 218.082657 
L 245.589118 217.326918 
L 254.142344 216.230089 
L 261.71148 215.045896 
L 270.67492 213.393012 
L 291.85551 209.251507 
L 303.932878 207.489896 
L 307.667976 206.631725 
L 311.828696 205.415957 
L 315.470044 204.125317 
L 319.376675 202.507707 
L 323.522185 200.529104 
L 327.867853 198.163383 
L 332.364477 195.393401 
L 335.801654 193.045797 
L 339.264944 190.467074 
L 342.726504 187.661135 
L 346.157825 184.635105 
L 349.53033 181.399235 
L 352.81596 177.96674 
L 355.98772 174.353578 
L 359.020188 170.578179 
L 361.889958 166.661129 
L 364.576029 162.624806 
L 367.060115 158.492991 
L 369.326882 154.290454 
L 371.364101 150.042523 
L 373.16272 145.774646 
L 374.716858 141.511956 
L 376.023718 137.278853 
L 377.083426 133.098601 
L 377.898807 128.992952 
L 378.475098 124.981816 
L 378.819618 121.082958 
L 378.94139 117.311758 
L 378.903883 114.874977 
L 378.903883 114.874977 
" clip-path="url(#p2b7b330801)" style="fill: none; stroke: #1f77b4; stroke-width: 2; stroke-linecap: square"/>
   </g>
   <g id="line2d_34">
    <path d="M 378.903883 114.874977 
L 378.850746 113.681015 
" clip-path="url(#p2b7b330801)" style="fill: none; stroke: #ff7f0e; stroke-width: 2; stroke-linecap: square"/>
   </g>
   <g id="patch_3">
    <path d="M 40.911094 228.988858 
L 40.911094 22.370625 
" style="fill: none; stroke: #000000; stroke-width: 0.8; stroke-linejoin: miter; stroke-linecap: square"/>
   </g>
   <g id="patch_4">
    <path d="M 40.911094 228.988858 
L 398.031094 228.988858 
" style="fill: none; stroke: #000000; stroke-width: 0.8; stroke-linejoin: miter; stroke-linecap: square"/>
   </g>
   <g id="PathCollection_1">
    <defs>
     <path id="m142537f03a" d="M 0 2.236068 
C 0.593012 2.236068 1.161816 2.000462 1.581139 1.581139 
C 2.000462 1.161816 2.236068 0.593012 2.236068 0 
C 2.236068 -0.593012 2.000462 -1.161816 1.581139 -1.581139 
C 1.161816 -2.000462 0.593012 -2.236068 0 -2.236068 
C -0.593012 -2.236068 -1.161816 -2.000462 -1.581139 -1.581139 
C -2.000462 -1.161816 -2.236068 -0.593012 -2.236068 0 
C -2.236068 0.593012 -2.000462 1.161816 -1.581139 1.581139 
C -1.161816 2.000462 -0.593012 2.236068 0 2.236068 
z
" style="stroke: #1f77b4"/>
    </defs>
    <g clip-path="url(#p2b7b330801)">
     <use xlink:href="#m142537f03a" x="381.798366" y="126.857213" style="fill: #1f77b4; stroke: #1f77b4"/>
     <use xlink:href="#m142537f03a" x="373.829388" y="98.147752" style="fill: #1f77b4; stroke: #1f77b4"/>
     <use xlink:href="#m142537f03a" x="364.910548" y="85.656135" style="fill: #1f77b4; stroke: #1f77b4"/>
     <use xlink:href="#m142537f03a" x="364.479078" y="85.162379" style="fill: #1f77b4; stroke: #1f77b4"/>
     <use xlink:href="#m142537f03a" x="363.177905" y="83.716098" style="fill: #1f77b4; stroke: #1f77b4"/>
     <use xlink:href="#m142537f03a" x="360.156932" y="80.578053" style="fill: #1f77b4; stroke: #1f77b4"/>
     <use xlink:href="#m142537f03a" x="358.134917" y="78.626029" style="fill: #1f77b4; stroke: #1f77b4"/>
     <use xlink:href="#m142537f03a" x="357.721354" y="78.239816" style="fill: #1f77b4; stroke: #1f77b4"/>
     <use xlink:href="#m142537f03a" x="357.644016" y="78.168061" style="fill: #1f77b4; stroke: #1f77b4"/>
     <use xlink:href="#m142537f03a" x="354.643046" y="75.490349" style="fill: #1f77b4; stroke: #1f77b4"/>
     <use xlink:href="#m142537f03a" x="326.617976" y="57.167467" style="fill: #1f77b4; stroke: #1f77b4"/>
     <use xlink:href="#m142537f03a" x="313.738354" y="51.332261" style="fill: #1f77b4; stroke: #1f77b4"/>
     <use xlink:href="#m142537f03a" x="296.367768" y="45.154954" style="fill: #1f77b4; stroke: #1f77b4"/>
     <use xlink:href="#m142537f03a" x="289.459436" y="43.150843" style="fill: #1f77b4; stroke: #1f77b4"/>
     <use xlink:href="#m142537f03a" x="273.216472" y="39.31644" style="fill: #1f77b4; stroke: #1f77b4"/>
     <use xlink:href="#m142537f03a" x="272.31995" y="39.138276" style="fill: #1f77b4; stroke: #1f77b4"/>
     <use xlink:href="#m142537f03a" x="259.33093" y="36.923275" style="fill: #1f77b4; stroke: #1f77b4"/>
     <use xlink:href="#m142537f03a" x="249.526408" y="35.686125" style="fill: #1f77b4; stroke: #1f77b4"/>
     <use xlink:href="#m142537f03a" x="242.40431" y="35.011918" style="fill: #1f77b4; stroke: #1f77b4"/>
     <use xlink:href="#m142537f03a" x="236.994785" y="34.623038" style="fill: #1f77b4; stroke: #1f77b4"/>
     <use xlink:href="#m142537f03a" x="210.505159" y="34.219392" style="fill: #1f77b4; stroke: #1f77b4"/>
     <use xlink:href="#m142537f03a" x="192.677915" y="35.347588" style="fill: #1f77b4; stroke: #1f77b4"/>
     <use xlink:href="#m142537f03a" x="190.347678" y="35.580065" style="fill: #1f77b4; stroke: #1f77b4"/>
     <use xlink:href="#m142537f03a" x="180.992289" y="36.717225" style="fill: #1f77b4; stroke: #1f77b4"/>
     <use xlink:href="#m142537f03a" x="180.401664" y="36.800148" style="fill: #1f77b4; stroke: #1f77b4"/>
     <use xlink:href="#m142537f03a" x="175.621894" y="37.520944" style="fill: #1f77b4; stroke: #1f77b4"/>
     <use xlink:href="#m142537f03a" x="174.233013" y="37.747178" style="fill: #1f77b4; stroke: #1f77b4"/>
     <use xlink:href="#m142537f03a" x="172.634021" y="38.01713" style="fill: #1f77b4; stroke: #1f77b4"/>
     <use xlink:href="#m142537f03a" x="139.743707" y="46.023785" style="fill: #1f77b4; stroke: #1f77b4"/>
     <use xlink:href="#m142537f03a" x="130.673609" y="49.171084" style="fill: #1f77b4; stroke: #1f77b4"/>
     <use xlink:href="#m142537f03a" x="96.732885" y="66.099323" style="fill: #1f77b4; stroke: #1f77b4"/>
     <use xlink:href="#m142537f03a" x="95.294966" y="67.060713" style="fill: #1f77b4; stroke: #1f77b4"/>
     <use xlink:href="#m142537f03a" x="86.903928" y="73.262875" style="fill: #1f77b4; stroke: #1f77b4"/>
     <use xlink:href="#m142537f03a" x="79.169703" y="80.130245" style="fill: #1f77b4; stroke: #1f77b4"/>
     <use xlink:href="#m142537f03a" x="75.877495" y="83.517909" style="fill: #1f77b4; stroke: #1f77b4"/>
     <use xlink:href="#m142537f03a" x="75.785206" y="83.617878" style="fill: #1f77b4; stroke: #1f77b4"/>
     <use xlink:href="#m142537f03a" x="75.506891" y="83.921152" style="fill: #1f77b4; stroke: #1f77b4"/>
     <use xlink:href="#m142537f03a" x="72.162173" y="87.799993" style="fill: #1f77b4; stroke: #1f77b4"/>
     <use xlink:href="#m142537f03a" x="58.481668" y="114.66803" style="fill: #1f77b4; stroke: #1f77b4"/>
     <use xlink:href="#m142537f03a" x="57.93813" y="117.29967" style="fill: #1f77b4; stroke: #1f77b4"/>
     <use xlink:href="#m142537f03a" x="57.458345" y="120.479954" style="fill: #1f77b4; stroke: #1f77b4"/>
     <use xlink:href="#m142537f03a" x="57.323437" y="121.719826" style="fill: #1f77b4; stroke: #1f77b4"/>
     <use xlink:href="#m142537f03a" x="57.143821" y="124.143124" style="fill: #1f77b4; stroke: #1f77b4"/>
     <use xlink:href="#m142537f03a" x="58.797578" y="140.33868" style="fill: #1f77b4; stroke: #1f77b4"/>
     <use xlink:href="#m142537f03a" x="65.160216" y="155.771154" style="fill: #1f77b4; stroke: #1f77b4"/>
     <use xlink:href="#m142537f03a" x="65.702891" y="156.700056" style="fill: #1f77b4; stroke: #1f77b4"/>
     <use xlink:href="#m142537f03a" x="66.69159" y="158.314149" style="fill: #1f77b4; stroke: #1f77b4"/>
     <use xlink:href="#m142537f03a" x="76.625868" y="170.996476" style="fill: #1f77b4; stroke: #1f77b4"/>
     <use xlink:href="#m142537f03a" x="79.630967" y="174.033406" style="fill: #1f77b4; stroke: #1f77b4"/>
     <use xlink:href="#m142537f03a" x="97.875664" y="188.36062" style="fill: #1f77b4; stroke: #1f77b4"/>
     <use xlink:href="#m142537f03a" x="109.748011" y="195.261516" style="fill: #1f77b4; stroke: #1f77b4"/>
     <use xlink:href="#m142537f03a" x="132.439065" y="205.192749" style="fill: #1f77b4; stroke: #1f77b4"/>
     <use xlink:href="#m142537f03a" x="136.034719" y="206.459474" style="fill: #1f77b4; stroke: #1f77b4"/>
     <use xlink:href="#m142537f03a" x="141.024805" y="208.098711" style="fill: #1f77b4; stroke: #1f77b4"/>
     <use xlink:href="#m142537f03a" x="146.136047" y="209.642384" style="fill: #1f77b4; stroke: #1f77b4"/>
     <use xlink:href="#m142537f03a" x="198.572407" y="218.866299" style="fill: #1f77b4; stroke: #1f77b4"/>
     <use xlink:href="#m142537f03a" x="206.203727" y="219.326861" style="fill: #1f77b4; stroke: #1f77b4"/>
     <use xlink:href="#m142537f03a" x="214.766182" y="219.59712" style="fill: #1f77b4; stroke: #1f77b4"/>
     <use xlink:href="#m142537f03a" x="230.239881" y="219.429891" style="fill: #1f77b4; stroke: #1f77b4"/>
     <use xlink:href="#m142537f03a" x="239.956998" y="218.891506" style="fill: #1f77b4; stroke: #1f77b4"/>
     <use xlink:href="#m142537f03a" x="261.35791" y="216.489582" style="fill: #1f77b4; stroke: #1f77b4"/>
     <use xlink:href="#m142537f03a" x="274.411724" y="214.155216" style="fill: #1f77b4; stroke: #1f77b4"/>
     <use xlink:href="#m142537f03a" x="283.435467" y="212.123734" style="fill: #1f77b4; stroke: #1f77b4"/>
     <use xlink:href="#m142537f03a" x="292.096843" y="209.826354" style="fill: #1f77b4; stroke: #1f77b4"/>
     <use xlink:href="#m142537f03a" x="293.850591" y="209.317237" style="fill: #1f77b4; stroke: #1f77b4"/>
     <use xlink:href="#m142537f03a" x="295.171201" y="208.923701" style="fill: #1f77b4; stroke: #1f77b4"/>
     <use xlink:href="#m142537f03a" x="299.830359" y="207.463544" style="fill: #1f77b4; stroke: #1f77b4"/>
     <use xlink:href="#m142537f03a" x="303.977103" y="206.066129" style="fill: #1f77b4; stroke: #1f77b4"/>
     <use xlink:href="#m142537f03a" x="307.909423" y="204.651164" style="fill: #1f77b4; stroke: #1f77b4"/>
     <use xlink:href="#m142537f03a" x="309.040613" y="204.22725" style="fill: #1f77b4; stroke: #1f77b4"/>
     <use xlink:href="#m142537f03a" x="318.327903" y="200.440453" style="fill: #1f77b4; stroke: #1f77b4"/>
     <use xlink:href="#m142537f03a" x="328.02933" y="195.829823" style="fill: #1f77b4; stroke: #1f77b4"/>
     <use xlink:href="#m142537f03a" x="332.326188" y="193.539057" style="fill: #1f77b4; stroke: #1f77b4"/>
     <use xlink:href="#m142537f03a" x="341.471361" y="188.053133" style="fill: #1f77b4; stroke: #1f77b4"/>
     <use xlink:href="#m142537f03a" x="357.73936" y="175.457883" style="fill: #1f77b4; stroke: #1f77b4"/>
     <use xlink:href="#m142537f03a" x="370.971135" y="160.170241" style="fill: #1f77b4; stroke: #1f77b4"/>
     <use xlink:href="#m142537f03a" x="378.132344" y="146.461509" style="fill: #1f77b4; stroke: #1f77b4"/>
     <use xlink:href="#m142537f03a" x="378.346098" y="145.887727" style="fill: #1f77b4; stroke: #1f77b4"/>
     <use xlink:href="#m142537f03a" x="380.663447" y="137.807901" style="fill: #1f77b4; stroke: #1f77b4"/>
     <use xlink:href="#m142537f03a" x="381.798366" y="126.857213" style="fill: #1f77b4; stroke: #1f77b4"/>
    </g>
   </g>
   <g id="text_17">
    <!-- ellipse | Fourier K=5 -->
    <g transform="translate(158.631094 16.370625) scale(0.12 -0.12)">
     <defs>
      <path id="DejaVuSans-65" d="M 3597 1894 
L 3597 1613 
L 953 1613 
Q 991 1019 1311 708 
Q 1631 397 2203 397 
Q 2534 397 2845 478 
Q 3156 559 3463 722 
L 3463 178 
Q 3153 47 2828 -22 
Q 2503 -91 2169 -91 
Q 1331 -91 842 396 
Q 353 884 353 1716 
Q 353 2575 817 3079 
Q 1281 3584 2069 3584 
Q 2775 3584 3186 3129 
Q 3597 2675 3597 1894 
z
M 3022 2063 
Q 3016 2534 2758 2815 
Q 2500 3097 2075 3097 
Q 1594 3097 1305 2825 
Q 1016 2553 972 2059 
L 3022 2063 
z
" transform="scale(0.015625)"/>
      <path id="DejaVuSans-6c" d="M 603 4863 
L 1178 4863 
L 1178 0 
L 603 0 
L 603 4863 
z
" transform="scale(0.015625)"/>
      <path id="DejaVuSans-69" d="M 603 3500 
L 1178 3500 
L 1178 0 
L 603 0 
L 603 3500 
z
M 603 4863 
L 1178 4863 
L 1178 4134 
L 603 4134 
L 603 4863 
z
" transform="scale(0.015625)"/>
      <path id="DejaVuSans-70" d="M 1159 525 
L 1159 -1331 
L 581 -1331 
L 581 3500 
L 1159 3500 
L 1159 2969 
Q 1341 3281 1617 3432 
Q 1894 3584 2278 3584 
Q 2916 3584 3314 3078 
Q 3713 2572 3713 1747 
Q 3713 922 3314 415 
Q 2916 -91 2278 -91 
Q 1894 -91 1617 61 
Q 1341 213 1159 525 
z
M 3116 1747 
Q 3116 2381 2855 2742 
Q 2594 3103 2138 3103 
Q 1681 3103 1420 2742 
Q 1159 2381 1159 1747 
Q 1159 1113 1420 752 
Q 1681 391 2138 391 
Q 2594 391 2855 752 
Q 3116 1113 3116 1747 
z
" transform="scale(0.015625)"/>
      <path id="DejaVuSans-73" d="M 2834 3397 
L 2834 2853 
Q 2591 2978 2328 3040 
Q 2066 3103 1784 3103 
Q 1356 3103 1142 2972 
Q 928 2841 928 2578 
Q 928 2378 1081 2264 
Q 1234 2150 1697 2047 
L 1894 2003 
Q 2506 1872 2764 1633 
Q 3022 1394 3022 966 
Q 3022 478 2636 193 
Q 2250 -91 1575 -91 
Q 1294 -91 989 -36 
Q 684 19 347 128 
L 347 722 
Q 666 556 975 473 
Q 1284 391 1588 391 
Q 1994 391 2212 530 
Q 2431 669 2431 922 
Q 2431 1156 2273 1281 
Q 2116 1406 1581 1522 
L 1381 1569 
Q 847 1681 609 1914 
Q 372 2147 372 2553 
Q 372 3047 722 3315 
Q 1072 3584 1716 3584 
Q 2034 3584 2315 3537 
Q 2597 3491 2834 3397 
z
" transform="scale(0.015625)"/>
      <path id="DejaVuSans-20" transform="scale(0.015625)"/>
      <path id="DejaVuSans-7c" d="M 1344 4891 
L 1344 -1509 
L 813 -1509 
L 813 4891 
L 1344 4891 
z
" transform="scale(0.015625)"/>
      <path id="DejaVuSans-46" d="M 628 4666 
L 3309 4666 
L 3309 4134 
L 1259 4134 
L 1259 2759 
L 3109 2759 
L 3109 2228 
L 1259 2228 
L 1259 0 
L 628 0 
L 628 4666 
z
" transform="scale(0.015625)"/>
      <path id="DejaVuSans-6f" d="M 1959 3097 
Q 1497 3097 1228 2736 
Q 959 2375 959 1747 
Q 959 1119 1226 758 
Q 1494 397 1959 397 
Q 2419 397 2687 759 
Q 2956 1122 2956 1747 
Q 2956 2369 2687 2733 
Q 2419 3097 1959 3097 
z
M 1959 3584 
Q 2709 3584 3137 3096 
Q 3566 2609 3566 1747 
Q 3566 888 3137 398 
Q 2709 -91 1959 -91 
Q 1206 -91 779 398 
Q 353 888 353 1747 
Q 353 2609 779 3096 
Q 1206 3584 1959 3584 
z
" transform="scale(0.015625)"/>
      <path id="DejaVuSans-75" d="M 544 1381 
L 544 3500 
L 1119 3500 
L 1119 1403 
Q 1119 906 1312 657 
Q 1506 409 1894 409 
Q 2359 409 2629 706 
Q 2900 1003 2900 1516 
L 2900 3500 
L 3475 3500 
L 3475 0 
L 2900 0 
L 2900 538 
Q 2691 219 2414 64 
Q 2138 -91 1772 -91 
Q 1169 -91 856 284 
Q 544 659 544 1381 
z
M 1991 3584 
L 1991 3584 
z
" transform="scale(0.015625)"/>
      <path id="DejaVuSans-72" d="M 2631 2963 
Q 2534 3019 2420 3045 
Q 2306 3072 2169 3072 
Q 1681 3072 1420 2755 
Q 1159 2438 1159 1844 
L 1159 0 
L 581 0 
L 581 3500 
L 1159 3500 
L 1159 2956 
Q 1341 3275 1631 3429 
Q 1922 3584 2338 3584 
Q 2397 3584 2469 3576 
Q 2541 3569 2628 3553 
L 2631 2963 
z
" transform="scale(0.015625)"/>
      <path id="DejaVuSans-4b" d="M 628 4666 
L 1259 4666 
L 1259 2694 
L 3353 4666 
L 4166 4666 
L 1850 2491 
L 4331 0 
L 3500 0 
L 1259 2247 
L 1259 0 
L 628 0 
L 628 4666 
z
" transform="scale(0.015625)"/>
      <path id="DejaVuSans-3d" d="M 678 2906 
L 4684 2906 
L 4684 2381 
L 678 2381 
L 678 2906 
z
M 678 1631 
L 4684 1631 
L 4684 1100 
L 678 1100 
L 678 1631 
z
" transform="scale(0.015625)"/>
     </defs>
     <use xlink:href="#DejaVuSans-65"/>
     <use xlink:href="#DejaVuSans-6c" transform="translate(61.523438 0)"/>
     <use xlink:href="#DejaVuSans-6c" transform="translate(89.306641 0)"/>
     <use xlink:href="#DejaVuSans-69" transform="translate(117.089844 0)"/>
     <use xlink:href="#DejaVuSans-70" transform="translate(144.873047 0)"/>
     <use xlink:href="#DejaVuSans-73" transform="translate(208.349609 0)"/>
     <use xlink:href="#DejaVuSans-65" transform="translate(260.449219 0)"/>
     <use xlink:href="#DejaVuSans-20" transform="translate(321.972656 0)"/>
     <use xlink:href="#DejaVuSans-7c" transform="translate(353.759766 0)"/>
     <use xlink:href="#DejaVuSans-20" transform="translate(387.451172 0)"/>
     <use xlink:href="#DejaVuSans-46" transform="translate(419.238281 0)"/>
     <use xlink:href="#DejaVuSans-6f" transform="translate(473.132812 0)"/>
     <use xlink:href="#DejaVuSans-75" transform="translate(534.314453 0)"/>
     <use xlink:href="#DejaVuSans-72" transform="translate(597.693359 0)"/>
     <use xlink:href="#DejaVuSans-69" transform="translate(638.806641 0)"/>
     <use xlink:href="#DejaVuSans-65" transform="translate(666.589844 0)"/>
     <use xlink:href="#DejaVuSans-72" transform="translate(728.113281 0)"/>
     <use xlink:href="#DejaVuSans-20" transform="translate(769.226562 0)"/>
     <use xlink:href="#DejaVuSans-4b" transform="translate(801.013672 0)"/>
     <use xlink:href="#DejaVuSans-3d" transform="translate(866.589844 0)"/>
     <use xlink:href="#DejaVuSans-35" transform="translate(950.378906 0)"/>
    </g>
   </g>
   <g id="legend_1">
    <g id="line2d_35">
     <path d="M 174.369844 118.408023 
L 183.369844 118.408023 
L 192.369844 118.408023 
" style="fill: none; stroke: #1f77b4; stroke-width: 2; stroke-linecap: square"/>
    </g>
    <g id="text_18">
     <!-- reconstruction -->
     <g transform="translate(199.569844 121.558023) scale(0.09 -0.09)">
      <defs>
       <path id="DejaVuSans-63" d="M 3122 3366 
L 3122 2828 
Q 2878 2963 2633 3030 
Q 2388 3097 2138 3097 
Q 1578 3097 1268 2742 
Q 959 2388 959 1747 
Q 959 1106 1268 751 
Q 1578 397 2138 397 
Q 2388 397 2633 464 
Q 2878 531 3122 666 
L 3122 134 
Q 2881 22 2623 -34 
Q 2366 -91 2075 -91 
Q 1284 -91 818 406 
Q 353 903 353 1747 
Q 353 2603 823 3093 
Q 1294 3584 2113 3584 
Q 2378 3584 2631 3529 
Q 2884 3475 3122 3366 
z
" transform="scale(0.015625)"/>
       <path id="DejaVuSans-6e" d="M 3513 2113 
L 3513 0 
L 2938 0 
L 2938 2094 
Q 2938 2591 2744 2837 
Q 2550 3084 2163 3084 
Q 1697 3084 1428 2787 
Q 1159 2491 1159 1978 
L 1159 0 
L 581 0 
L 581 3500 
L 1159 3500 
L 1159 2956 
Q 1366 3272 1645 3428 
Q 1925 3584 2291 3584 
Q 2894 3584 3203 3211 
Q 3513 2838 3513 2113 
z
" transform="scale(0.015625)"/>
       <path id="DejaVuSans-74" d="M 1172 4494 
L 1172 3500 
L 2356 3500 
L 2356 3053 
L 1172 3053 
L 1172 1153 
Q 1172 725 1289 603 
Q 1406 481 1766 481 
L 2356 481 
L 2356 0 
L 1766 0 
Q 1100 0 847 248 
Q 594 497 594 1153 
L 594 3053 
L 172 3053 
L 172 3500 
L 594 3500 
L 594 4494 
L 1172 4494 
z
" transform="scale(0.015625)"/>
      </defs>
      <use xlink:href="#DejaVuSans-72"/>
      <use xlink:href="#DejaVuSans-65" transform="translate(38.863281 0)"/>
      <use xlink:href="#DejaVuSans-63" transform="translate(100.386719 0)"/>
      <use xlink:href="#DejaVuSans-6f" transform="translate(155.367188 0)"/>
      <use xlink:href="#DejaVuSans-6e" transform="translate(216.548828 0)"/>
      <use xlink:href="#DejaVuSans-73" transform="translate(279.927734 0)"/>
      <use xlink:href="#DejaVuSans-74" transform="translate(332.027344 0)"/>
      <use xlink:href="#DejaVuSans-72" transform="translate(371.236328 0)"/>
      <use xlink:href="#DejaVuSans-75" transform="translate(412.349609 0)"/>
      <use xlink:href="#DejaVuSans-63" transform="translate(475.728516 0)"/>
      <use xlink:href="#DejaVuSans-74" transform="translate(530.708984 0)"/>
      <use xlink:href="#DejaVuSans-69" transform="translate(569.917969 0)"/>
      <use xlink:href="#DejaVuSans-6f" transform="translate(597.701172 0)"/>
      <use xlink:href="#DejaVuSans-6e" transform="translate(658.882812 0)"/>
     </g>
    </g>
    <g id="PathCollection_2">
     <g>
      <use xlink:href="#m142537f03a" x="183.369844" y="132.405835" style="fill: #1f77b4; stroke: #1f77b4"/>
     </g>
    </g>
    <g id="text_19">
     <!-- input points -->
     <g transform="translate(199.569844 134.768335) scale(0.09 -0.09)">
      <use xlink:href="#DejaVuSans-69"/>
      <use xlink:href="#DejaVuSans-6e" transform="translate(27.783203 0)"/>
      <use xlink:href="#DejaVuSans-70" transform="translate(91.162109 0)"/>
      <use xlink:href="#DejaVuSans-75" transform="translate(154.638672 0)"/>
      <use xlink:href="#DejaVuSans-74" transform="translate(218.017578 0)"/>
      <use xlink:href="#DejaVuSans-20" transform="translate(257.226562 0)"/>
      <use xlink:href="#DejaVuSans-70" transform="translate(289.013672 0)"/>
      <use xlink:href="#DejaVuSans-6f" transform="translate(352.490234 0)"/>
      <use xlink:href="#DejaVuSans-69" transform="translate(413.671875 0)"/>
      <use xlink:href="#DejaVuSans-6e" transform="translate(441.455078 0)"/>
      <use xlink:href="#DejaVuSans-74" transform="translate(504.833984 0)"/>
      <use xlink:href="#DejaVuSans-73" transform="translate(544.042969 0)"/>
     </g>
    </g>
   </g>
  </g>
 </g>
 <defs>
  <clipPath id="p2b7b330801">
   <rect x="40.911094" y="22.370625" width="357.12" height="206.618233"/>
  </clipPath>
 </defs>
</svg>
